<?xml version="1.0" encoding="UTF-8"?>
<svg width="361px" height="100px" viewBox="0 0 361 100" version="1.1" xmlns="http://www.w3.org/2000/svg" xmlns:xlink="http://www.w3.org/1999/xlink">
    <title>logo</title>
    <g id="Page-1" stroke="none" stroke-width="1" fill="none" fill-rule="evenodd">
        <g id="logo" transform="translate(0.100000, 0.000000)" fill-rule="nonzero">
            <g id="Group" transform="translate(118.500000, 36.000000)" fill="#4C4C4C">
                <path d="M-5.68434189e-14,24.5 L3.4,24.5 L5.2,3 L1.7,3 L1.7,0 L9.5,0 L16.6,16.8 C17,17.9 17.2,18.8 17.2,18.8 L17.3,18.8 C17.3,18.8 17.5,17.9 17.9,16.8 L25,0 L32.8,0 L32.8,3 L29.3,3 L31.1,24.5 L34.5,24.5 L34.5,27.5 L23.9,27.5 L23.9,24.5 L27.2,24.5 L25.8,8 C25.8,7.1 25.9,5.7 25.9,5.7 L25.8,5.7 C25.8,5.7 25.5,7 25.2,7.8 L18.9,22.3 L15.4,22.3 L9.1,7.8 C8.8,7 8.5,5.7 8.5,5.7 L8.4,5.7 C8.4,5.7 8.6,7.1 8.5,8 L7.3,24.5 L10.6,24.5 L10.6,27.5 L-5.68434189e-14,27.5 L-5.68434189e-14,24.5 L-5.68434189e-14,24.5 Z" id="Path"></path>
                <path d="M38.7,24.6 L41.8,24.6 L41.8,10.7 L38.5,10.7 L38.5,7.8 L45.6,7.8 L45.6,24.6 L48.7,24.6 L48.7,27.5 L38.7,27.5 L38.7,24.6 L38.7,24.6 Z M41.7,0 L45.7,0 L45.7,3.9 L41.7,3.9 L41.7,0 Z" id="Shape"></path>
                <path d="M52.8,24.6 L55.9,24.6 L55.9,11.6 C55.9,11 55.6,10.7 55,10.7 L52.6,10.7 L52.6,7.8 L57,7.8 C58.7,7.8 59.5,8.5 59.5,10 L59.5,11 C59.5,11.6 59.4,12.1 59.4,12.1 L59.5,12.1 C59.9,11 62.2,7.3 67.2,7.3 C71.7,7.3 73.8,9.8 73.8,14.9 L73.8,24.6 L76.9,24.6 L76.9,27.5 L70,27.5 L70,15.8 C70,13 69.5,10.8 66.3,10.8 C62.3,10.8 59.7,14.4 59.7,18.4 L59.7,24.6 L62.8,24.6 L62.8,27.5 L52.8,27.5 L52.8,24.6 L52.8,24.6 Z" id="Path"></path>
                <path d="M89.2,7.3 C94.8,7.3 97.7,11.4 97.7,16.5 C97.7,17 97.6,17.9 97.6,17.9 L83.2,17.9 C83.4,22.3 86.5,24.6 90,24.6 C93.4,24.6 95.9,22.4 95.9,22.4 L97.5,25.2 C97.5,25.2 94.5,27.9 89.8,27.9 C83.6,27.9 79.3,23.4 79.3,17.6 C79.4,11.4 83.6,7.3 89.2,7.3 Z M93.9,15.6 C93.8,12.1 91.7,10.3 89.2,10.3 C86.3,10.3 84,12.3 83.4,15.6 L93.9,15.6 Z" id="Shape"></path>
                <path d="M102.4,24.6 L105.4,24.6 L105.4,11.6 C105.4,11 105.1,10.7 104.5,10.7 L102,10.7 L102,7.8 L106.4,7.8 C108.1,7.8 108.9,8.5 108.9,10.1 L108.9,11.3 C108.9,12.1 108.8,12.7 108.8,12.7 L108.9,12.7 C109.8,9.8 112.1,7.6 115.1,7.6 C115.6,7.6 116.1,7.7 116.1,7.7 L116.1,11.4 C116.1,11.4 115.6,11.3 115,11.3 C110.8,11.3 109,15.6 109,19.4 L109,24.6 L111.9,24.6 L111.9,27.5 L102.4,27.5 L102.4,24.6 Z" id="Path"></path>
                <path d="M119.4,7.8 L128.3,7.8 L128.3,10.7 L125.8,10.7 L130,22.2 C130.3,23.1 130.4,24 130.4,24 L130.5,24 C130.5,24 130.6,23 130.9,22.2 L135.1,10.7 L132.6,10.7 L132.6,7.8 L141.4,7.8 L141.4,10.7 L138.9,10.7 L132.5,27.5 L128.2,27.5 L121.8,10.7 L119.4,10.7 L119.4,7.8 Z" id="Path"></path>
                <path d="M154.5,15.4 L155.7,15.4 L155.7,14.7 C155.7,11.6 153.9,10.5 151.5,10.5 C148.4,10.5 145.8,12.4 145.8,12.4 L144.3,9.7 C144.3,9.7 147.2,7.4 151.8,7.4 C156.8,7.4 159.5,10 159.5,15 L159.5,23.8 C159.5,24.4 159.8,24.7 160.4,24.7 L162.4,24.7 L162.4,27.6 L158.4,27.6 C156.6,27.6 155.9,26.7 155.9,25.5 L155.9,25.2 C155.9,24.4 156.1,23.9 156.1,23.9 L156,23.9 C156,23.9 154.3,28.1 149.5,28.1 C146.2,28.1 142.9,26.2 142.9,22.1 C143,15.8 151.2,15.4 154.5,15.4 Z M150.3,25.1 C153.7,25.1 155.7,21.7 155.7,18.7 L155.7,17.9 L154.7,17.9 C152.9,17.9 146.7,18 146.7,21.8 C146.8,23.5 148.1,25.1 150.3,25.1 Z" id="Shape"></path>
                <path d="M167.4,10.7 L164.1,10.7 L164.1,7.8 L167.5,7.8 L167.5,2.4 L171.2,2.4 L171.2,7.8 L175.9,7.8 L175.9,10.7 L171.2,10.7 L171.2,20 C171.2,24 173.9,24.5 175.4,24.5 C175.9,24.5 176.3,24.5 176.3,24.5 L176.3,27.7 C176.3,27.7 175.8,27.8 174.9,27.8 C172.4,27.8 167.4,27 167.4,20.4 L167.4,10.7 L167.4,10.7 Z" id="Path"></path>
                <path d="M180.4,24.6 L183.5,24.6 L183.5,10.7 L180.2,10.7 L180.2,7.8 L187.3,7.8 L187.3,24.6 L190.4,24.6 L190.4,27.5 L180.4,27.5 L180.4,24.6 L180.4,24.6 Z M183.4,0 L187.4,0 L187.4,3.9 L183.4,3.9 L183.4,0 Z" id="Shape"></path>
                <path d="M203.4,7.3 C209.3,7.3 214,11.6 214,17.6 C214,23.6 209.2,28 203.4,28 C197.6,28 192.8,23.6 192.8,17.6 C192.7,11.7 197.5,7.3 203.4,7.3 Z M203.4,24.7 C207.1,24.7 210.2,21.7 210.2,17.6 C210.2,13.5 207.1,10.6 203.4,10.6 C199.7,10.6 196.6,13.5 196.6,17.6 C196.6,21.8 199.6,24.7 203.4,24.7 Z" id="Shape"></path>
                <path d="M217.3,24.6 L220.4,24.6 L220.4,11.6 C220.4,11 220.1,10.7 219.5,10.7 L217.1,10.7 L217.1,7.8 L221.5,7.8 C223.2,7.8 224,8.5 224,10 L224,11 C224,11.6 223.9,12.1 223.9,12.1 L224,12.1 C224.4,11 226.7,7.3 231.7,7.3 C236.2,7.3 238.3,9.8 238.3,14.9 L238.3,24.6 L241.4,24.6 L241.4,27.5 L234.4,27.5 L234.4,15.8 C234.4,13 233.9,10.8 230.7,10.8 C226.7,10.8 224.1,14.4 224.1,18.4 L224.1,24.6 L227.2,24.6 L227.2,27.5 L217.2,27.5 L217.2,24.6 L217.3,24.6 Z" id="Path"></path>
            </g>
            <g id="Group" transform="translate(0.000000, 0.000000)">
                <g transform="translate(0.500000, 0.300000)" fill="#28AFA8" id="Path">
                    <polygon points="10.4 62.3 5.8 75.9 7.10542736e-15 61.4"></polygon>
                    <polygon points="53.8 1.0658141e-14 70.3 21 73.8 5.9"></polygon>
                    <polygon points="85.3 55.8 99.5 45.5 96.7 67.3"></polygon>
                    <polygon points="76.8 71.7 85.2 85.1 69 84.8 67.1 75.2"></polygon>
                    <polygon points="38.3 25.8 29.6 30 33 37.8 53.9 34.3"></polygon>
                </g>
                <g transform="translate(0.200000, 4.200000)" fill="#2DCDC8" id="Path">
                    <polygon points="64.7 49.9 76.3 66.7 66.7 70.3 58.1 68.4"></polygon>
                    <polygon points="29.2 -3.55271368e-15 19.5 17.9 16.3 7.8"></polygon>
                    <polygon points="68.3 82.1 69.3 92.4 58.9 95.6 51.1 85"></polygon>
                    <polygon points="-3.55271368e-15 34.4 19.3 47.6 15.5 29.4 4.5 22.7"></polygon>
                    <polygon points="32.7 35.4 21 48.8 28.8 56.1 40.3 52.2"></polygon>
                    <polygon points="56.1 69.3 49.3 83.7 30.9 81.5 38.7 66.7"></polygon>
                </g>
                <g transform="translate(0.000000, 0.000000)" fill="#128A87" id="Path">
                    <polygon points="-7.10542736e-15 39.9 9 46.2 -7.10542736e-15 58.9"></polygon>
                    <polygon points="72.2 21.7 75.6 7 91.1 21.7"></polygon>
                    <polygon points="78.9 39.2 66.5 52.2 84.5 55.2 99.6 44.5"></polygon>
                    <polygon points="78.5 71.7 96.4 69.7 86.4 84.7"></polygon>
                    <polygon points="50.7 0 38.9 24.2 32.7 2.7"></polygon>
                    <polygon points="19.3 23.8 27.8 29.6 16.3 32.5 5.6 26.1"></polygon>
                    <polygon points="18.8 90 29.8 87 34.8 98.1"></polygon>
                    <polygon points="21.1 77.6 16.9 88.5 7.4 77.7 11.8 63.3"></polygon>
                </g>
                <g transform="translate(0.200000, 3.300000)" fill="#218F8C" id="Path">
                    <polygon points="72 19.6 91.6 19.6 99.7 39.8 79 34.5"></polygon>
                    <polygon points="70.7 19.9 77.4 35.1 64.7 48.5 56.5 32"></polygon>
                    <polygon points="20.4 19.8 31.3 -3.55271368e-15 37.7 21.9 29.1 25.9"></polygon>
                    <polygon points="63.5 50.1 56.7 68.7 39.1 66.4 41.8 54.1"></polygon>
                    <polygon points="28.5 27.4 32 35 20.4 48.5 16.9 30.5"></polygon>
                    <polygon points="40.3 54.5 29.3 58.2 22.8 73.1 37.8 66.2"></polygon>
                    <polygon points="31 83.7 36.4 95.4 57.3 96.7 49.3 85.9"></polygon>
                    <polygon points="10 43.7 19.1 49.8 11 58.2 3.55271368e-15 57.1"></polygon>
                </g>
                <g transform="translate(6.100000, 0.100000)" fill="#176361" id="Path">
                    <polygon points="46.2 0 33.7 25 49.8 33.9 63.6 22.2"></polygon>
                    <polygon points="59.8 53.3 78.3 56.5 90.4 68.5 71.7 70.6"></polygon>
                    <polygon points="63.6 86.2 78.8 86.4 64.5 96.1"></polygon>
                    <polygon points="27.9 39.1 49.3 35.6 57.9 52 35.7 55.7"></polygon>
                    <polygon points="51.7 73.7 60.4 75.6 62.2 85 44.7 87.9"></polygon>
                    <polygon points="9.3 12.7 12.4 22.7 -3.55271368e-15 24.8"></polygon>
                    <polygon points="31 71.3 23.5 85.6 12 88.9 16.3 78.1"></polygon>
                    <polygon points="6.3 62.2 15.6 76.1 22.2 61.3 14.2 53.7"></polygon>
                </g>
            </g>
        </g>
    </g>
</svg>